<svg id="svg" version="1.1" xmlns="http://www.w3.org/2000/svg" width="400"
     height="289.64489694561706" viewBox="0, 0, 400,289.64489694561706">
    <g id="svgg">
        <path id="path0"
              d="M311.417 7.614 C 307.722 7.936,302.813 8.867,296.667 10.409 C 295.774 10.633,292.886 11.450,291.292 11.929 C 290.856 12.060,290.144 12.271,289.708 12.398 C 287.766 12.967,281.576 15.011,279.333 15.825 C 274.725 17.497,273.195 18.067,272.551 18.355 C 272.166 18.526,271.739 18.667,271.602 18.667 C 271.465 18.667,271.312 18.733,271.261 18.815 C 271.211 18.896,270.963 19.014,270.710 19.075 C 270.216 19.196,267.589 20.196,266.725 20.592 C 266.436 20.725,266.156 20.833,266.103 20.833 C 266.050 20.833,265.386 21.125,264.628 21.481 C 263.870 21.838,263.081 22.181,262.875 22.243 C 262.281 22.422,262.387 22.515,264.645 23.787 L 266.782 24.990 271.266 23.064 C 303.102 9.386,318.906 7.464,312.567 18.040 C 312.057 18.891,310.529 20.992,310.171 21.333 C 310.123 21.379,309.673 21.904,309.171 22.500 C 307.619 24.342,303.145 28.738,300.180 31.334 C 299.500 31.929,298.822 32.529,298.675 32.667 C 298.082 33.220,295.709 35.217,294.417 36.250 C 293.958 36.617,293.546 36.961,293.500 37.016 C 293.381 37.158,291.011 39.053,289.250 40.414 C 288.425 41.052,287.712 41.619,287.667 41.674 C 287.621 41.728,287.133 42.100,286.583 42.500 C 286.033 42.900,285.546 43.273,285.500 43.330 C 285.454 43.386,285.154 43.614,284.833 43.836 C 284.512 44.058,284.169 44.316,284.070 44.411 C 283.723 44.743,275.976 50.460,273.784 52.002 C 273.069 52.505,272.345 53.029,272.174 53.167 C 271.809 53.461,271.983 53.339,268.500 55.744 C 266.987 56.788,265.675 57.704,265.583 57.779 C 265.492 57.855,264.967 58.217,264.418 58.583 C 263.868 58.950,263.334 59.325,263.230 59.417 C 262.996 59.623,262.708 59.818,261.333 60.703 C 260.737 61.086,260.212 61.445,260.167 61.501 C 260.121 61.556,259.783 61.781,259.417 62.000 C 259.050 62.219,258.712 62.442,258.667 62.493 C 258.621 62.545,258.133 62.887,257.583 63.252 C 257.033 63.618,256.546 63.958,256.500 64.009 C 256.454 64.059,256.117 64.282,255.750 64.504 C 255.383 64.725,255.008 64.965,254.917 65.038 C 254.746 65.172,248.753 69.115,247.250 70.081 C 246.190 70.762,241.664 73.674,239.917 74.799 C 236.623 76.918,233.898 78.624,230.559 80.655 C 229.289 81.428,228.213 82.103,228.167 82.155 C 228.121 82.207,227.896 82.358,227.667 82.491 C 227.438 82.623,226.125 83.414,224.750 84.249 C 223.375 85.083,222.065 85.874,221.840 86.008 C 221.614 86.141,221.328 86.344,221.203 86.458 C 221.078 86.573,220.869 86.667,220.738 86.667 C 220.607 86.667,220.499 86.723,220.499 86.792 C 220.498 86.860,220.329 86.999,220.124 87.100 C 219.918 87.201,217.725 88.503,215.250 89.994 C 212.775 91.485,210.637 92.746,210.500 92.796 C 210.362 92.846,210.063 93.017,209.833 93.174 C 209.149 93.645,207.937 94.341,207.625 94.443 C 207.465 94.496,207.333 94.605,207.333 94.686 C 207.333 94.767,207.251 94.833,207.150 94.833 C 207.049 94.833,205.980 95.424,204.775 96.145 C 203.569 96.866,202.246 97.643,201.833 97.871 C 200.521 98.597,199.788 99.016,198.250 99.916 C 195.467 101.545,193.151 102.833,193.006 102.833 C 192.926 102.833,192.836 102.890,192.806 102.958 C 192.775 103.027,192.487 103.223,192.167 103.393 C 190.810 104.114,189.375 104.916,188.795 105.278 C 188.453 105.492,188.146 105.667,188.114 105.667 C 188.081 105.667,187.161 106.162,186.069 106.768 C 184.977 107.374,183.708 108.076,183.250 108.328 C 182.792 108.580,181.704 109.182,180.833 109.666 C 179.963 110.150,178.800 110.787,178.250 111.082 C 177.700 111.376,176.744 111.891,176.125 112.225 C 173.555 113.614,172.656 114.093,170.833 115.041 C 169.779 115.590,168.542 116.247,168.083 116.501 C 162.598 119.546,145.605 128.037,135.667 132.700 C 134.887 133.065,133.800 133.576,133.250 133.834 C 132.700 134.092,131.819 134.497,131.292 134.735 C 130.281 135.190,128.889 135.817,127.708 136.348 C 127.319 136.523,126.681 136.810,126.292 136.986 C 125.902 137.161,125.208 137.467,124.750 137.664 C 123.743 138.099,123.165 138.353,122.134 138.816 C 121.704 139.009,121.315 139.167,121.271 139.167 C 121.226 139.167,120.678 139.398,120.053 139.680 C 119.428 139.963,118.654 140.305,118.333 140.441 C 118.013 140.578,117.600 140.755,117.417 140.836 C 117.233 140.917,116.408 141.254,115.583 141.584 C 114.758 141.914,113.858 142.282,113.583 142.401 C 113.308 142.520,112.333 142.904,111.417 143.254 C 110.500 143.604,109.679 143.953,109.592 144.029 C 109.505 144.105,109.328 144.167,109.200 144.167 C 109.072 144.167,108.731 144.271,108.442 144.398 C 108.153 144.525,107.467 144.796,106.917 145.000 C 106.367 145.204,105.680 145.475,105.391 145.602 C 105.103 145.729,104.806 145.833,104.733 145.833 C 104.605 145.833,102.095 146.723,101.417 147.008 C 101.233 147.086,100.446 147.349,99.667 147.593 C 98.888 147.836,97.725 148.208,97.083 148.418 C 96.442 148.629,95.657 148.855,95.339 148.922 C 95.021 148.988,94.646 149.103,94.505 149.176 C 94.261 149.305,94.005 149.376,91.750 149.939 C 82.787 152.178,78.442 151.987,77.642 149.318 C 76.152 144.343,92.527 128.487,116.955 111.250 L 119.317 109.583 119.325 106.875 C 119.330 105.385,119.293 104.167,119.243 104.167 C 119.148 104.167,118.142 104.850,118.000 105.011 C 117.954 105.063,117.468 105.438,116.920 105.844 C 116.372 106.251,115.809 106.674,115.670 106.784 C 115.531 106.894,114.367 107.789,113.083 108.773 C 111.800 109.757,110.712 110.605,110.667 110.657 C 110.621 110.709,110.283 110.974,109.917 111.245 C 109.550 111.516,109.159 111.816,109.047 111.911 C 108.822 112.103,108.870 112.065,107.250 113.331 C 106.608 113.832,106.046 114.283,106.000 114.333 C 105.954 114.384,105.092 115.093,104.083 115.911 C 103.075 116.728,101.982 117.626,101.655 117.906 C 101.328 118.187,100.878 118.569,100.655 118.754 C 99.297 119.887,96.720 122.090,96.198 122.565 C 95.860 122.873,94.796 123.824,93.833 124.680 C 92.871 125.535,92.000 126.313,91.897 126.409 C 86.542 131.418,82.609 135.353,80.161 138.147 C 79.568 138.824,79.008 139.462,78.917 139.564 C 78.602 139.916,77.750 140.943,77.300 141.513 C 77.052 141.827,76.523 142.496,76.124 143.000 C 75.725 143.504,75.141 144.291,74.825 144.748 C 74.509 145.205,74.175 145.660,74.083 145.760 C 73.992 145.860,73.768 146.217,73.587 146.554 C 73.406 146.891,73.200 147.167,73.129 147.167 C 73.058 147.167,73.000 147.238,73.000 147.325 C 73.000 147.412,72.784 147.806,72.520 148.200 C 68.856 153.668,68.735 159.016,72.216 161.627 C 74.376 163.247,80.574 163.895,86.083 163.076 C 97.060 161.445,108.286 158.267,123.750 152.414 C 134.943 148.178,146.675 143.094,161.333 136.126 C 163.666 135.017,179.350 127.181,179.583 127.008 C 179.675 126.940,181.025 126.224,182.583 125.417 C 208.211 112.150,240.426 92.636,263.750 76.252 C 323.139 34.534,343.795 4.790,311.417 7.614 "
              stroke="none" fill="#f36a2a" fill-rule="evenodd"></path>
        <path id="path1"
              d="M148.000 22.333 C 148.000 22.425,147.887 22.500,147.750 22.500 C 147.612 22.500,147.500 22.575,147.500 22.667 C 147.500 22.758,147.350 22.833,147.167 22.833 C 146.983 22.833,146.833 22.908,146.833 23.000 C 146.833 23.092,146.753 23.167,146.654 23.167 C 146.555 23.167,145.575 23.692,144.477 24.333 C 143.378 24.975,142.409 25.500,142.323 25.500 C 142.237 25.500,142.167 25.575,142.167 25.667 C 142.167 25.758,142.083 25.833,141.981 25.833 C 141.879 25.833,141.050 26.283,140.140 26.833 C 139.229 27.383,138.413 27.833,138.326 27.833 C 138.035 27.833,138.166 28.073,139.096 29.250 C 140.295 30.766,142.011 33.259,142.367 34.000 C 142.706 34.708,143.203 35.877,143.500 36.667 C 143.747 37.324,144.349 38.723,144.418 38.801 C 144.443 38.829,144.960 38.548,145.568 38.176 C 146.175 37.804,146.740 37.500,146.823 37.500 C 146.907 37.500,147.186 37.323,147.446 37.108 C 147.705 36.892,149.379 35.872,151.167 34.841 C 152.954 33.810,155.603 32.282,157.052 31.447 C 159.385 30.102,159.653 29.903,159.385 29.719 C 159.219 29.605,159.008 29.450,158.917 29.376 C 158.825 29.301,158.262 28.928,157.667 28.546 C 157.071 28.163,156.508 27.788,156.417 27.712 C 156.325 27.635,155.950 27.390,155.583 27.168 C 155.217 26.945,154.826 26.685,154.714 26.590 C 154.257 26.199,154.053 26.054,153.417 25.668 C 153.050 25.445,152.659 25.185,152.547 25.090 C 152.027 24.645,151.858 24.529,151.081 24.080 C 150.624 23.815,150.212 23.558,150.167 23.508 C 149.668 22.962,148.000 22.057,148.000 22.333 M144.127 46.789 C 143.977 47.134,143.696 47.829,143.503 48.333 C 142.677 50.488,142.051 51.688,140.927 53.270 C 139.812 54.840,138.761 56.215,138.408 56.569 C 138.242 56.734,138.184 56.916,138.269 57.001 C 138.513 57.244,142.995 59.833,143.171 59.833 C 143.260 59.833,143.333 59.908,143.333 60.000 C 143.333 60.092,143.416 60.167,143.518 60.167 C 143.619 60.167,144.500 60.644,145.476 61.228 C 146.452 61.812,147.587 62.476,148.000 62.704 C 148.412 62.932,149.792 63.729,151.066 64.476 C 152.340 65.222,153.413 65.833,153.449 65.833 C 153.486 65.833,154.717 66.546,156.184 67.417 C 157.651 68.287,158.885 69.000,158.926 69.000 C 158.967 69.000,159.994 69.589,161.209 70.310 C 162.423 71.030,163.492 71.649,163.583 71.685 C 163.675 71.721,164.181 72.001,164.708 72.308 L 165.667 72.865 165.667 88.420 L 165.667 103.976 165.152 104.232 C 164.637 104.489,162.344 105.811,157.118 108.865 C 155.579 109.764,154.248 110.500,154.160 110.500 C 154.072 110.500,154.000 110.575,154.000 110.667 C 154.000 110.758,153.922 110.833,153.827 110.833 C 153.731 110.833,152.565 111.471,151.236 112.250 C 149.906 113.029,148.792 113.667,148.761 113.667 C 148.729 113.667,147.566 114.342,146.176 115.167 C 144.786 115.992,143.614 116.667,143.572 116.667 C 143.530 116.667,142.365 117.342,140.982 118.167 C 139.599 118.992,138.400 119.667,138.317 119.667 C 138.045 119.667,138.156 119.865,139.125 121.117 C 139.652 121.798,140.174 122.473,140.285 122.616 C 140.474 122.862,152.739 116.891,161.917 112.086 C 168.528 108.625,171.290 107.160,175.917 104.663 C 191.181 96.425,208.152 86.697,222.667 77.867 C 227.160 75.133,227.413 74.967,226.874 75.108 C 226.556 75.191,225.866 74.857,225.363 74.377 C 225.242 74.261,225.079 74.167,225.000 74.167 C 224.921 74.167,224.758 74.070,224.637 73.952 C 224.516 73.834,224.117 73.557,223.750 73.336 C 223.383 73.115,223.046 72.892,223.000 72.840 C 222.954 72.788,222.467 72.447,221.917 72.081 C 221.367 71.716,220.879 71.375,220.833 71.325 C 220.787 71.274,220.450 71.052,220.083 70.831 C 219.717 70.610,219.318 70.333,219.196 70.215 C 219.075 70.097,218.912 70.000,218.833 70.000 C 218.755 70.000,218.591 69.903,218.470 69.785 C 218.349 69.667,217.950 69.389,217.583 69.167 C 217.217 68.944,216.826 68.685,216.714 68.590 C 216.255 68.198,216.052 68.054,215.417 67.670 C 215.050 67.449,214.713 67.224,214.667 67.171 C 214.621 67.118,213.758 66.533,212.750 65.870 C 210.270 64.241,210.317 64.273,210.105 64.077 C 210.001 63.982,209.617 63.723,209.250 63.503 C 208.883 63.282,208.546 63.058,208.500 63.007 C 208.454 62.955,207.968 62.613,207.420 62.248 C 206.871 61.882,206.346 61.523,206.253 61.450 C 206.160 61.376,205.596 61.005,205.000 60.625 C 204.404 60.244,203.879 59.888,203.833 59.833 C 203.787 59.778,203.450 59.552,203.083 59.331 C 202.717 59.110,202.326 58.851,202.214 58.756 C 201.755 58.364,201.552 58.221,200.917 57.837 C 200.550 57.615,200.213 57.392,200.167 57.341 C 200.121 57.290,199.596 56.931,199.000 56.544 C 198.404 56.157,197.842 55.780,197.750 55.706 C 197.658 55.633,197.283 55.390,196.917 55.168 C 196.550 54.945,196.159 54.685,196.047 54.590 C 195.588 54.198,195.386 54.054,194.750 53.670 C 194.383 53.449,194.046 53.225,194.000 53.173 C 193.954 53.121,193.467 52.780,192.917 52.414 C 192.367 52.049,191.791 51.614,191.638 51.447 C 191.340 51.124,190.333 51.433,190.333 51.847 C 190.333 51.942,190.269 51.980,190.191 51.932 C 190.113 51.883,189.698 52.066,189.269 52.339 C 188.839 52.611,188.445 52.833,188.392 52.833 C 188.340 52.833,187.686 53.201,186.940 53.651 C 186.194 54.101,185.133 54.713,184.583 55.012 C 184.033 55.310,183.546 55.604,183.500 55.665 C 183.454 55.725,183.297 55.818,183.151 55.872 C 182.808 55.998,178.314 58.602,178.049 58.828 C 177.938 58.923,177.801 59.000,177.744 59.000 C 177.622 59.000,174.454 60.864,174.333 61.007 C 174.175 61.195,172.375 62.167,172.186 62.167 C 172.027 62.167,166.811 59.191,155.750 52.789 C 154.650 52.152,152.380 50.845,150.705 49.884 C 149.031 48.923,147.568 48.046,147.455 47.934 C 147.298 47.779,145.033 46.456,144.495 46.206 C 144.443 46.181,144.277 46.444,144.127 46.789 M119.350 88.396 C 119.374 109.711,119.428 116.167,119.580 116.167 C 119.793 116.167,121.208 115.925,122.633 115.646 C 124.279 115.323,127.259 115.485,131.250 116.115 L 131.750 116.193 131.750 88.424 L 131.750 60.655 130.583 60.766 C 129.942 60.827,129.304 60.932,129.167 61.000 C 128.300 61.427,124.378 61.491,122.492 61.109 C 121.809 60.971,120.815 60.806,120.284 60.742 L 119.317 60.626 119.350 88.396 M248.250 93.996 C 247.700 94.349,246.688 94.988,246.000 95.415 C 245.313 95.843,244.188 96.557,243.500 97.002 C 242.813 97.447,241.551 98.248,240.696 98.781 C 239.841 99.314,238.964 99.862,238.747 100.000 C 238.282 100.294,236.149 101.603,231.000 104.751 C 228.938 106.012,227.025 107.159,226.750 107.300 C 226.475 107.441,225.823 107.843,225.301 108.195 C 224.779 108.546,224.305 108.833,224.248 108.833 C 224.190 108.833,223.816 109.058,223.417 109.333 C 223.017 109.608,222.644 109.833,222.587 109.833 C 222.530 109.833,221.038 110.691,219.270 111.740 C 217.503 112.789,215.624 113.884,215.095 114.175 C 214.566 114.465,213.385 115.144,212.470 115.684 C 211.555 116.225,210.777 116.667,210.742 116.667 C 210.706 116.667,210.056 117.027,209.297 117.468 C 206.933 118.839,205.246 119.794,204.144 120.383 C 203.561 120.695,202.821 121.099,202.500 121.282 C 200.726 122.290,194.070 125.888,192.271 126.812 C 191.801 127.053,191.379 127.287,191.333 127.333 C 191.287 127.379,190.762 127.667,190.167 127.972 C 186.293 129.959,185.500 130.389,185.500 130.508 C 185.500 130.633,187.906 132.167,188.102 132.167 C 188.152 132.167,189.271 132.804,190.588 133.583 C 191.905 134.362,193.014 135.000,193.053 135.000 C 193.091 135.000,193.976 135.511,195.020 136.135 C 196.063 136.760,197.329 137.499,197.833 137.778 C 199.600 138.755,200.425 139.228,201.417 139.830 C 201.967 140.165,202.885 140.695,203.458 141.008 L 204.500 141.577 204.500 157.643 L 204.500 173.708 205.042 173.598 C 205.340 173.538,206.145 173.410,206.831 173.313 C 207.517 173.217,208.121 173.112,208.173 173.080 C 208.748 172.724,213.932 173.048,216.500 173.600 L 216.917 173.690 216.870 157.434 L 216.822 141.179 217.453 140.769 C 217.800 140.544,220.483 138.979,223.417 137.290 C 226.350 135.601,231.975 132.357,235.917 130.082 C 239.858 127.806,243.162 125.945,243.258 125.945 C 243.354 125.944,243.954 126.284,244.591 126.699 C 245.712 127.429,248.951 129.333,249.071 129.333 C 249.104 129.333,250.268 130.008,251.658 130.833 C 253.048 131.658,254.213 132.333,254.248 132.333 C 254.282 132.333,255.324 132.933,256.563 133.667 C 257.802 134.400,258.894 135.000,258.991 135.000 C 259.088 135.000,259.167 135.066,259.167 135.147 C 259.167 135.228,259.298 135.337,259.458 135.390 C 259.619 135.442,260.087 135.685,260.500 135.928 C 262.817 137.296,265.196 138.667,265.254 138.667 C 265.291 138.667,266.018 139.089,266.869 139.606 C 269.552 141.234,271.372 142.195,271.505 142.053 C 271.575 141.978,271.841 141.279,272.095 140.500 C 273.037 137.615,273.988 135.919,276.281 133.040 C 276.969 132.174,277.469 131.411,277.392 131.342 C 277.314 131.274,275.188 130.032,272.667 128.581 C 270.146 127.131,266.958 125.292,265.583 124.496 C 264.208 123.699,260.571 121.600,257.500 119.832 C 254.429 118.064,251.317 116.269,250.583 115.844 L 249.250 115.070 249.250 104.201 C 249.250 98.224,249.250 93.338,249.250 93.344 C 249.250 93.349,248.800 93.643,248.250 93.996 M284.000 121.019 L 284.000 127.705 285.125 127.591 C 285.744 127.527,286.700 127.360,287.250 127.218 C 288.327 126.940,292.552 127.001,293.597 127.309 C 293.879 127.392,294.636 127.513,295.280 127.578 L 296.449 127.695 296.371 125.139 C 296.279 122.152,296.579 122.628,293.500 120.582 C 292.262 119.759,291.212 119.044,291.167 118.993 C 291.121 118.941,290.783 118.719,290.417 118.500 C 290.050 118.281,289.712 118.057,289.667 118.003 C 289.621 117.949,288.571 117.232,287.333 116.411 C 286.096 115.589,285.046 114.872,285.000 114.817 C 284.897 114.693,284.223 114.333,284.094 114.333 C 284.042 114.333,284.000 117.342,284.000 121.019 M149.737 150.110 C 149.595 150.462,149.380 150.975,149.258 151.250 C 149.137 151.525,148.980 151.937,148.911 152.165 C 148.406 153.832,147.190 155.891,145.303 158.273 C 144.495 159.294,143.833 160.195,143.833 160.276 C 143.833 160.417,145.031 161.183,146.417 161.928 C 146.783 162.125,148.123 162.897,149.393 163.643 C 150.664 164.389,151.733 165.000,151.769 165.000 C 151.804 165.000,152.841 165.600,154.073 166.333 C 155.305 167.067,156.392 167.667,156.490 167.667 C 156.587 167.667,156.667 167.742,156.667 167.833 C 156.667 167.925,156.737 168.000,156.824 168.000 C 156.910 168.000,157.820 168.491,158.845 169.090 C 159.871 169.690,161.131 170.412,161.646 170.696 C 162.162 170.979,163.558 171.790,164.750 172.498 C 165.942 173.206,167.442 174.073,168.083 174.424 C 168.725 174.776,170.104 175.574,171.147 176.198 C 172.190 176.823,173.076 177.333,173.114 177.333 C 173.152 177.333,174.261 177.971,175.579 178.750 C 176.896 179.529,178.007 180.167,178.048 180.167 C 178.089 180.167,178.976 180.678,180.020 181.302 C 181.063 181.926,182.329 182.665,182.833 182.944 C 184.498 183.864,185.069 184.193,186.440 185.017 C 187.186 185.466,187.880 185.833,187.981 185.833 C 188.083 185.833,188.167 185.900,188.167 185.981 C 188.167 186.062,188.298 186.171,188.458 186.223 C 188.747 186.318,189.509 186.748,191.039 187.680 L 191.828 188.160 192.058 187.705 C 192.184 187.455,192.454 186.725,192.658 186.083 C 193.429 183.661,194.625 181.575,196.776 178.901 C 197.474 178.033,198.016 177.301,197.981 177.275 C 197.946 177.248,188.992 172.083,178.083 165.796 C 167.175 159.509,157.050 153.673,155.583 152.826 C 154.117 151.980,152.879 151.235,152.833 151.171 C 152.787 151.107,152.375 150.843,151.917 150.584 C 151.458 150.325,150.839 149.969,150.539 149.792 L 149.996 149.470 149.737 150.110 M270.667 149.897 C 270.346 150.105,269.746 150.457,269.333 150.679 C 268.921 150.901,268.546 151.122,268.500 151.170 C 268.454 151.218,268.229 151.348,268.000 151.461 C 267.771 151.573,267.471 151.738,267.333 151.827 C 266.779 152.189,263.630 154.000,263.556 154.000 C 263.512 154.000,263.150 154.225,262.750 154.500 C 262.350 154.775,261.976 155.000,261.918 155.000 C 261.860 155.000,260.805 155.600,259.573 156.333 C 258.341 157.067,257.295 157.667,257.248 157.667 C 257.201 157.667,256.031 158.342,254.648 159.167 C 253.266 159.992,252.100 160.667,252.059 160.667 C 252.017 160.667,250.905 161.304,249.588 162.083 C 248.271 162.862,247.160 163.500,247.119 163.500 C 247.078 163.500,246.153 164.035,245.064 164.688 C 243.975 165.342,242.708 166.082,242.250 166.333 C 241.792 166.584,240.742 167.182,239.917 167.663 C 235.076 170.482,230.935 172.833,230.810 172.833 C 230.731 172.833,230.667 172.908,230.667 173.000 C 230.667 173.092,230.595 173.167,230.508 173.167 C 230.420 173.167,229.277 173.792,227.966 174.557 C 226.656 175.322,225.077 176.225,224.458 176.565 C 223.092 177.315,223.091 177.140,224.471 178.846 C 226.396 181.225,227.701 183.313,228.163 184.750 C 228.280 185.117,228.428 185.492,228.491 185.583 C 228.553 185.675,228.811 186.289,229.063 186.947 L 229.521 188.144 230.469 187.631 C 230.990 187.348,231.904 186.798,232.500 186.409 C 233.096 186.020,236.958 183.755,241.083 181.376 C 249.995 176.236,260.133 170.385,269.750 164.832 C 273.600 162.608,276.919 160.712,277.125 160.618 C 277.642 160.381,277.668 160.436,276.067 158.403 C 273.912 155.667,272.891 153.784,271.845 150.625 C 271.427 149.361,271.462 149.382,270.667 149.897 M37.129 225.122 C 37.521 225.157,38.121 225.157,38.463 225.121 C 38.804 225.085,38.483 225.057,37.750 225.057 C 37.017 225.058,36.737 225.087,37.129 225.122 M215.707 233.268 L 215.667 240.285 214.375 240.392 C 213.665 240.450,210.818 240.548,208.049 240.609 L 203.015 240.720 202.958 239.401 C 202.926 238.676,202.885 248.733,202.867 261.750 L 202.833 285.417 216.625 285.374 C 241.977 285.297,240.863 285.351,245.083 283.973 C 261.571 278.586,263.569 256.845,248.250 249.503 C 247.700 249.239,246.958 248.905,246.602 248.761 L 245.954 248.498 246.748 248.076 C 249.775 246.467,252.823 242.886,253.749 239.852 L 253.870 239.454 247.393 239.583 C 243.831 239.654,240.823 239.715,240.708 239.717 C 240.594 239.720,240.500 239.822,240.500 239.944 C 240.500 240.067,240.413 240.167,240.306 240.167 C 240.199 240.167,240.156 240.212,240.211 240.267 C 240.405 240.461,238.543 242.384,237.417 243.151 C 235.436 244.501,235.814 244.462,223.710 244.558 L 215.836 244.620 215.792 235.435 C 215.749 226.559,215.746 226.486,215.707 233.268 M125.444 226.778 C 125.383 226.839,125.333 230.463,125.333 234.832 L 125.333 242.775 120.792 242.974 C 118.294 243.083,115.444 243.171,114.458 243.170 L 112.667 243.167 112.667 264.359 L 112.667 285.552 115.193 285.443 C 116.583 285.383,119.470 285.333,121.610 285.333 L 125.500 285.333 125.500 273.250 L 125.500 261.167 132.814 261.167 L 140.128 261.167 140.404 261.587 C 140.556 261.819,141.176 262.961,141.782 264.126 C 142.388 265.291,143.173 266.716,143.526 267.292 C 143.878 267.868,144.167 268.373,144.167 268.414 C 144.167 268.455,144.579 269.203,145.083 270.076 C 145.587 270.949,146.000 271.739,146.000 271.832 C 146.000 271.924,146.075 272.000,146.167 272.000 C 146.258 272.000,146.333 272.084,146.333 272.187 C 146.333 272.289,146.586 272.795,146.896 273.312 C 147.205 273.828,147.644 274.587,147.872 275.000 C 149.156 277.323,150.768 280.164,151.109 280.705 C 151.324 281.047,151.500 281.362,151.500 281.404 C 151.500 281.476,151.934 282.239,153.072 284.167 C 153.315 284.579,153.553 285.031,153.600 285.171 C 153.676 285.394,165.987 285.491,168.111 285.285 C 168.432 285.254,168.129 284.677,165.426 280.167 C 157.755 267.371,153.167 259.647,153.167 259.532 C 153.167 259.462,153.860 259.073,154.708 258.666 C 161.048 255.626,165.183 250.258,166.504 243.350 C 166.698 242.337,166.825 241.301,166.786 241.046 C 166.720 240.604,166.716 240.607,166.692 241.117 C 166.659 241.808,166.772 241.793,160.750 241.908 C 158.092 241.959,155.389 242.048,154.743 242.105 L 153.570 242.209 153.254 242.980 C 152.106 245.781,149.665 248.170,146.926 249.170 C 144.791 249.949,144.391 249.978,134.708 250.041 L 125.500 250.101 125.500 238.469 L 125.500 226.836 134.542 226.792 L 143.583 226.747 134.569 226.707 C 129.612 226.685,125.506 226.717,125.444 226.778 M350.125 226.792 C 352.531 226.818,356.469 226.818,358.875 226.792 C 361.281 226.766,359.313 226.744,354.500 226.744 C 349.688 226.744,347.719 226.766,350.125 226.792 M381.125 226.792 C 383.990 226.817,388.677 226.817,391.542 226.792 C 394.406 226.766,392.063 226.745,386.333 226.745 C 380.604 226.745,378.260 226.766,381.125 226.792 M20.075 232.375 L 19.417 233.083 20.125 232.425 C 20.784 231.812,20.910 231.667,20.784 231.667 C 20.757 231.667,20.438 231.985,20.075 232.375 M254.545 232.833 C 254.545 233.246,254.578 233.415,254.618 233.208 C 254.657 233.002,254.657 232.665,254.618 232.458 C 254.578 232.252,254.545 232.421,254.545 232.833 M166.705 235.500 C 166.705 235.821,166.740 235.952,166.782 235.792 C 166.823 235.631,166.823 235.369,166.782 235.208 C 166.740 235.048,166.705 235.179,166.705 235.500 M254.542 236.083 C 254.544 236.450,254.578 236.580,254.618 236.373 C 254.658 236.166,254.656 235.866,254.615 235.706 C 254.573 235.547,254.540 235.717,254.542 236.083 M363.189 260.651 L 363.167 285.552 365.693 285.443 C 367.083 285.383,369.970 285.333,372.110 285.333 L 376.000 285.333 376.000 260.677 L 376.000 236.021 375.458 236.087 C 375.160 236.124,372.742 236.195,370.083 236.246 C 367.425 236.297,364.825 236.385,364.306 236.441 C 363.408 236.539,363.359 236.524,363.287 236.147 C 363.246 235.929,363.202 246.955,363.189 260.651 M294.862 261.151 L 294.833 285.552 297.458 285.443 C 298.902 285.383,301.790 285.334,303.875 285.334 L 307.667 285.333 307.642 261.208 C 307.628 247.940,307.587 237.278,307.550 237.515 L 307.483 237.947 303.464 238.057 C 301.254 238.117,298.450 238.167,297.233 238.167 L 295.019 238.167 294.955 237.458 C 294.920 237.069,294.878 247.730,294.862 261.151 M166.893 238.500 C 166.893 239.371,166.922 239.727,166.956 239.292 C 166.990 238.856,166.990 238.144,166.956 237.708 C 166.922 237.273,166.893 237.629,166.893 238.500 M74.809 244.000 C 74.735 244.213,73.797 244.270,68.489 244.386 C 61.463 244.538,61.949 244.407,62.293 246.057 C 63.070 249.782,62.377 256.476,60.841 260.083 C 57.932 266.918,53.424 271.369,46.583 274.162 C 38.956 277.276,28.804 275.693,22.102 270.346 C 15.030 264.704,11.281 254.135,13.259 245.417 C 13.326 245.121,13.314 245.125,13.148 245.446 C 12.913 245.899,12.381 245.946,5.750 246.101 C 3.092 246.163,0.745 246.222,0.534 246.232 C -0.013 246.258,-0.036 246.485,0.050 250.940 C 0.156 256.348,0.780 259.665,2.446 263.667 C 2.580 263.987,2.751 264.400,2.827 264.583 C 3.897 267.162,6.111 270.881,7.701 272.768 C 18.066 285.073,34.453 289.878,49.583 285.048 C 66.269 279.721,77.008 263.855,75.346 246.986 C 75.113 244.616,74.936 243.635,74.809 244.000 M237.412 254.752 C 246.189 256.611,248.172 268.426,240.479 273.021 C 237.811 274.614,237.330 274.667,225.405 274.667 L 215.667 274.667 215.667 264.694 C 215.667 259.210,215.717 254.672,215.778 254.611 C 216.027 254.362,236.193 254.494,237.412 254.752 "
              stroke="none" fill="#2c51a1" fill-rule="evenodd"></path>
        <path id="path2"
              d="M188.337 0.765 C 187.652 1.168,187.015 1.523,186.923 1.554 C 186.341 1.748,188.772 6.395,190.818 9.000 C 191.646 10.054,192.326 10.958,192.329 11.007 C 192.331 11.057,188.640 13.229,184.125 15.833 C 165.308 26.687,154.550 32.889,151.333 34.740 C 147.172 37.133,147.428 36.914,147.772 37.792 L 148.046 38.487 148.731 38.095 C 149.108 37.878,151.404 36.556,153.833 35.155 C 156.262 33.754,158.550 32.444,158.917 32.244 C 159.283 32.044,160.258 31.486,161.083 31.005 C 162.562 30.142,165.188 28.620,168.381 26.776 C 169.278 26.257,170.084 25.833,170.173 25.833 C 170.261 25.833,170.333 25.758,170.333 25.667 C 170.333 25.575,170.407 25.500,170.497 25.500 C 170.587 25.500,171.731 24.874,173.039 24.110 C 175.588 22.619,179.512 20.343,180.436 19.820 C 180.746 19.644,181.268 19.348,181.595 19.163 C 181.923 18.977,183.366 18.144,184.804 17.311 C 186.241 16.477,188.467 15.190,189.750 14.450 C 193.426 12.330,196.078 10.789,196.140 10.738 C 196.195 10.694,194.071 7.841,193.854 7.667 C 193.233 7.168,191.880 4.636,190.826 2.000 C 189.936 -0.226,189.984 -0.202,188.337 0.765 M227.311 0.625 C 226.767 1.894,226.770 1.930,227.453 2.335 C 228.028 2.677,234.531 6.431,254.962 18.217 L 262.341 22.474 263.585 21.967 C 264.269 21.689,264.793 21.403,264.750 21.333 C 264.686 21.229,261.444 19.317,259.383 18.167 C 259.137 18.029,258.291 17.535,257.505 17.068 C 256.129 16.251,255.416 15.843,253.708 14.893 C 253.273 14.651,252.109 13.976,251.123 13.393 C 250.136 12.810,249.255 12.333,249.165 12.333 C 249.074 12.333,249.000 12.258,249.000 12.167 C 249.000 12.075,248.929 12.000,248.841 12.000 C 248.754 12.000,247.760 11.463,246.633 10.807 C 245.506 10.151,244.246 9.426,243.833 9.198 C 243.421 8.969,241.996 8.145,240.667 7.367 C 239.338 6.589,237.875 5.748,237.417 5.498 C 236.958 5.248,235.692 4.509,234.603 3.855 C 233.514 3.201,232.595 2.667,232.561 2.667 C 232.527 2.667,231.473 2.067,230.219 1.333 C 227.579 -0.211,227.660 -0.191,227.311 0.625 M315.667 7.187 C 312.747 7.383,312.705 7.458,315.500 7.484 C 341.910 7.731,320.172 36.618,263.750 76.252 C 240.426 92.636,208.211 112.150,182.583 125.417 C 181.025 126.224,179.675 126.940,179.583 127.008 C 179.350 127.181,163.666 135.017,161.333 136.126 C 146.675 143.094,134.943 148.178,123.750 152.414 C 110.301 157.504,99.503 160.721,90.116 162.433 C 88.288 162.766,88.114 162.821,89.083 162.758 C 92.043 162.564,97.775 161.472,103.000 160.105 C 104.237 159.781,105.438 159.468,105.667 159.410 C 106.386 159.226,108.398 158.648,108.833 158.500 C 109.063 158.422,109.813 158.193,110.500 157.991 C 113.094 157.229,123.211 153.813,124.250 153.348 C 124.433 153.266,125.071 153.030,125.667 152.824 C 126.263 152.617,126.821 152.385,126.908 152.307 C 126.995 152.230,127.183 152.164,127.325 152.161 C 127.467 152.158,127.883 152.010,128.250 151.833 C 128.617 151.656,128.984 151.509,129.065 151.506 C 129.214 151.500,131.956 150.457,132.583 150.167 C 132.767 150.082,133.949 149.598,135.210 149.091 C 138.020 147.962,139.478 147.366,139.917 147.168 C 140.100 147.085,141.262 146.594,142.500 146.077 C 143.737 145.560,145.219 144.918,145.792 144.652 C 146.365 144.385,146.866 144.167,146.905 144.167 C 146.944 144.167,147.525 143.914,148.196 143.605 C 148.867 143.297,149.979 142.800,150.667 142.502 C 151.354 142.204,152.540 141.670,153.302 141.314 C 154.063 140.958,154.714 140.667,154.747 140.667 C 154.780 140.667,155.620 140.284,156.612 139.815 C 158.406 138.969,160.065 138.191,163.250 136.702 C 169.883 133.602,188.962 123.848,196.002 119.958 C 196.413 119.730,197.237 119.283,197.833 118.963 C 198.429 118.643,199.629 117.984,200.500 117.498 C 201.371 117.013,202.496 116.389,203.000 116.113 C 203.504 115.837,204.196 115.436,204.538 115.222 C 204.880 115.008,205.195 114.833,205.239 114.833 C 205.336 114.833,210.202 112.074,211.913 111.048 C 212.098 110.937,212.362 110.794,212.500 110.729 C 212.637 110.664,213.838 109.976,215.167 109.199 C 216.496 108.423,217.846 107.640,218.167 107.459 C 218.487 107.279,218.825 107.072,218.917 107.000 C 219.097 106.858,220.111 106.270,220.917 105.839 C 222.063 105.227,227.254 102.073,227.306 101.958 C 227.336 101.890,227.433 101.833,227.522 101.833 C 227.610 101.833,228.110 101.560,228.633 101.225 C 229.156 100.891,230.558 100.029,231.750 99.309 C 232.942 98.590,234.724 97.495,235.710 96.876 C 236.697 96.256,238.572 95.082,239.877 94.265 C 241.182 93.449,242.756 92.455,243.375 92.057 C 243.994 91.659,245.044 90.985,245.708 90.559 C 247.874 89.170,250.168 87.664,255.083 84.403 C 259.539 81.446,260.897 80.528,264.714 77.892 C 265.467 77.372,266.533 76.640,267.082 76.265 C 267.632 75.890,268.157 75.523,268.249 75.450 C 268.341 75.377,269.092 74.837,269.917 74.251 C 272.152 72.664,273.873 71.426,275.917 69.938 C 278.566 68.008,287.446 61.362,287.701 61.118 C 287.819 61.004,288.929 60.126,290.167 59.167 C 291.404 58.208,292.567 57.296,292.750 57.142 C 292.933 56.988,294.208 55.948,295.583 54.832 C 296.958 53.715,298.271 52.639,298.500 52.442 C 298.729 52.244,299.629 51.487,300.500 50.759 C 301.371 50.031,302.424 49.132,302.840 48.760 C 303.256 48.388,304.111 47.633,304.739 47.083 C 305.368 46.533,306.190 45.800,306.566 45.455 C 306.942 45.109,307.977 44.172,308.865 43.371 C 310.839 41.593,318.356 34.046,319.839 32.353 C 320.432 31.676,320.992 31.039,321.085 30.936 C 325.381 26.178,329.462 19.570,330.179 16.211 C 331.667 9.238,327.133 6.420,315.667 7.187 M307.250 11.278 C 300.949 12.057,292.943 14.408,281.667 18.792 C 277.555 20.391,267.187 24.747,266.965 24.969 C 266.899 25.034,268.008 25.753,269.429 26.566 C 271.746 27.892,271.987 28.072,271.777 28.314 C 269.446 30.986,266.667 35.535,266.667 36.678 C 266.667 36.879,269.402 38.495,269.521 38.364 C 269.578 38.301,269.984 37.350,270.424 36.250 C 271.673 33.119,272.016 32.536,274.580 29.182 C 274.762 28.944,275.081 28.563,275.289 28.335 C 275.883 27.683,275.858 27.642,274.352 26.798 C 274.021 26.612,273.048 26.048,272.191 25.543 L 270.632 24.627 271.941 24.052 C 272.661 23.736,274.150 23.101,275.250 22.640 C 276.350 22.180,277.475 21.701,277.750 21.577 C 278.025 21.453,278.925 21.081,279.750 20.751 C 280.575 20.420,281.400 20.081,281.583 19.996 C 281.767 19.912,282.329 19.687,282.833 19.497 C 283.337 19.307,283.975 19.051,284.250 18.929 C 285.350 18.439,294.859 14.968,296.167 14.579 C 296.579 14.456,297.779 14.088,298.833 13.759 C 300.888 13.119,305.114 12.003,306.750 11.668 C 307.300 11.555,307.938 11.402,308.167 11.328 L 308.583 11.193 308.167 11.205 C 307.938 11.211,307.525 11.244,307.250 11.278 M202.500 14.819 C 202.500 15.440,203.443 15.599,206.249 15.448 C 208.374 15.334,209.568 15.028,207.957 15.011 C 207.428 15.005,206.303 14.894,205.457 14.765 C 202.208 14.270,202.500 14.264,202.500 14.819 M213.750 14.515 C 213.200 14.591,212.431 14.698,212.041 14.754 L 211.332 14.854 211.374 31.118 L 211.417 47.383 222.500 53.778 C 228.596 57.295,234.501 60.702,235.622 61.348 L 237.661 62.522 238.766 61.860 C 240.049 61.091,240.235 61.361,237.250 59.659 C 236.242 59.085,234.347 57.989,233.039 57.224 C 231.731 56.459,230.626 55.833,230.583 55.833 C 230.541 55.833,230.036 55.546,229.461 55.194 C 228.887 54.843,227.517 54.046,226.417 53.423 C 224.445 52.307,222.155 50.974,221.667 50.659 C 221.529 50.570,221.229 50.405,221.000 50.291 C 220.771 50.178,219.496 49.443,218.167 48.658 C 216.838 47.873,215.619 47.181,215.459 47.121 C 215.186 47.018,215.166 46.043,215.126 30.728 C 215.098 20.040,215.026 14.433,214.917 14.410 C 214.825 14.392,214.300 14.438,213.750 14.515 M147.700 46.663 C 147.498 47.125,147.333 47.602,147.333 47.722 C 147.333 47.843,148.777 48.772,150.542 49.787 C 152.306 50.802,154.650 52.153,155.750 52.790 C 167.294 59.466,172.025 62.167,172.176 62.167 C 172.435 62.167,174.329 61.107,174.331 60.962 C 174.332 60.895,174.015 60.679,173.625 60.482 C 173.235 60.284,171.941 59.544,170.749 58.836 C 169.558 58.128,168.254 57.369,167.852 57.149 C 167.450 56.930,166.998 56.675,166.848 56.583 C 166.697 56.492,165.789 55.973,164.829 55.430 C 163.869 54.887,162.108 53.868,160.917 53.164 C 159.725 52.460,158.300 51.637,157.750 51.334 C 157.200 51.031,156.150 50.429,155.417 49.996 C 154.683 49.564,153.746 49.023,153.333 48.795 C 152.921 48.566,151.657 47.839,150.526 47.178 C 149.394 46.518,148.378 45.943,148.268 45.900 C 148.151 45.855,147.914 46.174,147.700 46.663 M269.075 45.987 C 268.988 46.072,268.465 46.391,267.913 46.696 C 266.155 47.667,266.287 47.514,266.587 48.234 C 267.044 49.328,267.931 48.622,256.250 56.461 C 230.206 73.938,196.938 93.690,167.417 109.203 C 160.792 112.684,158.792 113.707,151.125 117.537 L 143.333 121.429 143.792 121.953 L 144.250 122.477 146.833 121.219 C 150.596 119.385,161.576 113.892,164.000 112.631 C 165.146 112.034,167.208 110.964,168.583 110.252 C 169.958 109.540,171.566 108.695,172.156 108.375 C 172.746 108.055,173.908 107.438,174.739 107.003 C 175.570 106.568,176.588 106.025,177.000 105.797 C 177.412 105.569,178.575 104.947,179.583 104.414 C 180.592 103.882,181.679 103.298,182.000 103.117 C 182.321 102.935,183.671 102.189,185.000 101.458 C 186.329 100.727,187.792 99.922,188.250 99.670 C 189.079 99.214,190.720 98.325,191.833 97.729 C 192.154 97.557,192.442 97.360,192.472 97.292 C 192.503 97.223,192.601 97.167,192.691 97.167 C 192.782 97.167,193.490 96.792,194.266 96.333 C 195.042 95.875,195.710 95.500,195.750 95.500 C 195.791 95.500,196.395 95.162,197.092 94.750 C 197.790 94.337,198.388 94.000,198.421 94.000 C 198.455 94.000,199.442 93.444,200.616 92.764 C 201.790 92.085,203.950 90.835,205.417 89.988 C 207.810 88.605,210.515 87.024,217.000 83.218 C 218.146 82.546,219.196 81.926,219.333 81.842 C 219.471 81.757,221.571 80.487,224.000 79.018 C 227.910 76.654,229.884 75.446,235.333 72.085 C 237.202 70.932,239.937 69.222,240.667 68.750 C 240.987 68.543,242.112 67.828,243.167 67.163 C 248.649 63.700,258.759 57.056,264.083 53.416 C 265.275 52.602,267.037 51.406,268.000 50.759 C 268.962 50.113,269.895 49.452,270.073 49.292 C 270.251 49.131,270.457 49.000,270.531 49.000 C 270.760 49.000,270.687 48.686,270.125 47.234 C 269.602 45.884,269.413 45.659,269.075 45.987 M123.000 60.740 C 123.000 61.332,123.115 61.358,125.628 61.344 C 127.467 61.334,129.882 61.086,128.823 61.017 C 128.680 61.008,127.368 60.851,125.907 60.669 C 124.445 60.486,123.194 60.336,123.125 60.335 C 123.056 60.334,123.000 60.516,123.000 60.740 M133.250 60.566 L 131.750 60.750 131.708 87.963 C 131.674 109.655,131.708 115.189,131.875 115.236 C 132.064 115.289,133.204 115.484,134.875 115.749 L 135.500 115.848 135.500 88.091 L 135.500 60.333 135.125 60.357 C 134.919 60.371,134.075 60.464,133.250 60.566 M287.667 72.319 C 287.667 72.900,289.141 73.136,291.477 72.930 C 293.929 72.714,294.261 72.603,292.833 72.480 C 292.146 72.420,290.726 72.250,289.677 72.102 C 288.629 71.954,287.748 71.833,287.719 71.833 C 287.690 71.833,287.667 72.052,287.667 72.319 M298.112 72.090 C 297.303 72.207,296.611 72.334,296.574 72.371 C 296.279 72.666,296.302 126.638,296.598 126.791 C 296.773 126.882,297.404 127.007,298.000 127.068 C 298.596 127.130,299.327 127.223,299.625 127.275 L 300.167 127.370 300.167 99.602 C 300.167 73.259,300.152 71.834,299.875 71.854 C 299.715 71.866,298.921 71.972,298.112 72.090 M250.872 94.273 L 249.164 95.380 249.207 105.225 L 249.250 115.070 250.583 115.844 C 251.317 116.270,254.429 118.064,257.500 119.832 C 260.571 121.600,264.208 123.699,265.583 124.496 C 266.958 125.292,270.146 127.131,272.667 128.581 C 275.188 130.032,277.313 131.273,277.390 131.341 C 277.467 131.408,276.921 132.232,276.178 133.173 C 274.120 135.777,271.942 139.669,272.259 140.181 C 272.354 140.334,275.037 141.852,275.101 141.788 C 275.129 141.760,275.484 140.915,275.890 139.910 C 276.296 138.906,276.729 137.858,276.852 137.583 C 277.120 136.985,278.497 134.662,278.743 134.393 C 278.838 134.289,279.056 134.011,279.226 133.776 C 279.396 133.541,279.942 132.839,280.440 132.216 L 281.344 131.083 280.964 130.773 C 280.755 130.603,280.158 130.248,279.637 129.985 C 279.116 129.722,277.991 129.082,277.136 128.564 C 276.282 128.045,275.021 127.306,274.333 126.921 C 273.646 126.536,272.333 125.783,271.417 125.247 C 270.500 124.711,269.450 124.109,269.083 123.909 C 268.717 123.709,267.568 123.048,266.532 122.439 C 265.495 121.831,264.314 121.145,263.907 120.916 C 263.500 120.687,262.810 120.300,262.375 120.055 C 261.940 119.811,261.133 119.336,260.583 119.000 C 260.033 118.664,259.208 118.182,258.750 117.929 C 258.292 117.676,256.810 116.827,255.458 116.044 L 253.000 114.619 253.000 103.893 C 253.000 95.390,252.957 93.167,252.790 93.167 C 252.675 93.167,251.812 93.665,250.872 94.273 M114.916 112.713 C 85.216 134.360,71.958 148.853,79.706 151.201 C 80.551 151.458,85.368 151.470,85.991 151.217 C 86.326 151.081,86.162 151.036,85.064 150.961 C 79.838 150.602,80.140 146.809,85.929 140.068 C 87.890 137.784,93.387 132.426,96.000 130.251 C 96.412 129.908,96.787 129.579,96.833 129.520 C 96.906 129.426,98.784 127.820,99.751 127.025 C 102.845 124.479,104.058 123.499,105.667 122.247 C 106.721 121.426,107.621 120.711,107.667 120.658 C 107.712 120.605,108.200 120.229,108.750 119.822 C 109.300 119.416,109.849 118.990,109.970 118.875 C 110.091 118.760,110.242 118.667,110.305 118.667 C 110.368 118.667,110.607 118.495,110.835 118.285 C 111.247 117.906,114.367 115.557,117.629 113.170 L 119.333 111.923 119.333 110.795 C 119.333 109.368,119.757 109.184,114.916 112.713 M123.000 115.663 C 123.000 115.762,123.315 115.786,123.792 115.723 C 124.869 115.582,124.894 115.500,123.861 115.500 C 123.388 115.500,123.000 115.574,123.000 115.663 M236.161 129.942 C 232.268 132.189,226.533 135.495,223.417 137.289 C 220.300 139.084,217.544 140.696,217.292 140.871 L 216.833 141.189 216.833 156.933 C 216.833 169.385,216.877 172.690,217.042 172.737 C 217.156 172.769,217.887 172.886,218.667 172.996 C 219.446 173.106,220.215 173.232,220.375 173.276 C 220.651 173.352,220.667 172.499,220.667 157.049 L 220.667 140.743 222.375 139.748 C 223.315 139.200,224.346 138.611,224.667 138.438 C 224.987 138.265,226.338 137.486,227.667 136.706 C 228.996 135.927,230.458 135.083,230.917 134.832 C 231.375 134.580,232.525 133.915,233.472 133.354 C 234.419 132.793,235.227 132.333,235.267 132.333 C 235.307 132.333,235.620 132.158,235.962 131.943 C 237.015 131.282,240.533 129.235,241.500 128.720 C 244.801 126.965,244.910 126.854,243.909 126.257 L 243.238 125.857 236.161 129.942 M287.748 127.169 C 287.679 127.282,287.972 127.302,288.613 127.230 C 289.883 127.087,289.948 127.000,288.788 127.000 C 288.274 127.000,287.806 127.076,287.748 127.169 M153.359 149.870 C 152.730 151.273,152.675 151.157,154.460 152.181 C 157.755 154.070,197.919 177.228,197.981 177.275 C 198.016 177.301,197.487 178.019,196.805 178.870 C 194.025 182.339,191.985 186.333,192.993 186.333 C 193.070 186.333,193.626 186.633,194.230 187.000 C 195.630 187.851,195.510 187.895,196.147 186.292 C 197.173 183.711,197.374 183.250,197.878 182.333 C 198.328 181.515,200.369 178.665,200.892 178.126 C 201.003 178.011,201.257 177.685,201.456 177.403 L 201.817 176.888 199.867 175.785 C 198.794 175.178,197.826 174.603,197.715 174.507 C 197.605 174.412,197.470 174.333,197.415 174.333 C 197.361 174.333,196.439 173.821,195.367 173.194 C 194.294 172.568,192.179 171.340,190.667 170.466 C 189.154 169.591,186.742 168.191,185.307 167.355 C 183.872 166.518,182.616 165.833,182.515 165.833 C 182.415 165.833,182.333 165.758,182.333 165.667 C 182.333 165.575,182.258 165.500,182.166 165.500 C 182.036 165.500,178.460 163.469,177.167 162.660 C 177.029 162.574,176.617 162.343,176.250 162.147 C 175.883 161.951,174.908 161.397,174.083 160.915 C 168.130 157.437,166.509 156.500,166.447 156.500 C 166.409 156.500,165.299 155.854,163.980 155.064 C 162.662 154.274,161.473 153.584,161.338 153.532 C 161.203 153.479,159.928 152.754,158.504 151.921 C 157.081 151.087,155.413 150.125,154.798 149.782 L 153.679 149.157 153.359 149.870 M273.667 149.934 C 272.979 150.347,272.307 150.748,272.174 150.826 C 271.545 151.195,273.775 155.515,276.127 158.483 C 277.661 160.419,277.643 160.381,277.125 160.619 C 276.919 160.714,272.625 163.173,267.583 166.084 C 262.542 168.995,254.292 173.758,249.250 176.668 C 234.355 185.266,232.753 186.194,232.693 186.252 C 232.585 186.359,233.083 187.542,233.265 187.612 C 233.365 187.651,234.453 187.088,235.682 186.362 C 236.911 185.635,239.004 184.419,240.333 183.659 C 241.662 182.899,243.815 181.653,245.117 180.889 C 246.418 180.125,247.519 179.500,247.563 179.500 C 247.608 179.500,248.605 178.930,249.780 178.234 C 250.955 177.537,252.217 176.798,252.583 176.591 C 254.145 175.708,254.522 175.492,256.420 174.386 C 257.518 173.746,258.567 173.140,258.750 173.039 C 258.933 172.938,260.107 172.250,261.358 171.511 C 262.609 170.772,263.675 170.167,263.727 170.167 C 263.811 170.167,265.838 168.988,268.053 167.651 C 268.494 167.385,268.883 167.167,268.917 167.167 C 268.973 167.167,274.405 164.046,275.000 163.672 C 275.276 163.498,277.307 162.325,278.492 161.655 C 281.779 159.796,281.585 160.234,280.004 158.239 C 278.573 156.432,277.306 154.433,276.683 153.000 C 275.921 151.247,275.833 151.032,275.833 150.917 C 275.833 150.853,275.729 150.564,275.601 150.275 C 275.473 149.986,275.326 149.619,275.273 149.458 C 275.143 149.062,275.094 149.077,273.667 149.934 M208.708 172.969 C 208.410 172.998,208.167 173.079,208.167 173.150 C 208.167 173.271,210.059 173.081,210.417 172.923 C 210.585 172.849,209.705 172.873,208.708 172.969 "
              stroke="none" fill="#94939b" fill-rule="evenodd"></path>
        <path id="path3"
              d="M128.208 60.948 C 128.369 60.990,128.631 60.990,128.792 60.948 C 128.952 60.906,128.821 60.872,128.500 60.872 C 128.179 60.872,128.048 60.906,128.208 60.948 M119.401 106.833 C 119.401 108.346,119.426 108.965,119.457 108.208 C 119.488 107.452,119.488 106.215,119.457 105.458 C 119.426 104.702,119.401 105.321,119.401 106.833 M307.667 251.831 L 307.667 285.328 302.958 285.372 L 298.250 285.417 298.202 286.792 L 298.153 288.167 304.660 288.167 L 311.167 288.167 311.167 253.250 L 311.167 218.333 309.417 218.333 L 307.667 218.333 307.667 251.831 M396.667 222.583 L 396.667 226.833 386.333 226.833 L 376.000 226.833 376.000 256.081 L 376.000 285.328 371.208 285.372 L 366.417 285.417 366.368 286.792 L 366.320 288.167 372.827 288.167 L 379.333 288.167 379.333 258.833 L 379.333 229.500 389.667 229.500 L 400.000 229.500 400.000 223.917 L 400.000 218.333 398.333 218.333 L 396.667 218.333 396.667 222.583 M250.000 221.797 C 250.000 221.880,250.157 222.091,250.350 222.265 C 250.542 222.439,251.097 223.182,251.581 223.916 C 256.306 231.066,255.623 240.127,249.938 245.733 C 248.945 246.712,246.614 248.333,246.198 248.333 C 245.755 248.333,246.188 248.634,247.151 248.994 C 247.697 249.198,248.638 249.655,249.244 250.008 C 250.248 250.595,250.707 250.683,251.000 250.345 C 251.046 250.292,251.392 250.040,251.769 249.784 C 259.739 244.381,260.257 231.091,252.778 223.906 C 251.510 222.688,250.000 221.542,250.000 221.797 M161.484 223.327 C 165.239 227.692,166.895 232.335,166.895 238.500 C 166.895 247.779,162.603 254.880,154.708 258.666 C 153.860 259.073,153.167 259.462,153.167 259.532 C 153.167 259.646,157.425 266.815,165.424 280.167 L 168.469 285.250 162.199 285.294 C 155.546 285.340,155.423 285.357,155.980 286.138 C 156.174 286.411,156.333 286.681,156.333 286.737 C 156.333 286.794,156.522 287.138,156.752 287.503 L 157.171 288.167 164.585 288.167 C 168.663 288.167,172.000 288.109,172.000 288.039 C 172.000 287.969,171.737 287.522,171.417 287.046 C 171.096 286.570,170.833 286.136,170.833 286.083 C 170.833 286.030,170.571 285.597,170.250 285.121 C 169.929 284.644,169.667 284.166,169.667 284.058 C 169.667 283.950,169.610 283.836,169.542 283.806 C 169.385 283.736,168.844 282.848,168.720 282.458 C 168.669 282.298,168.562 282.167,168.481 282.167 C 168.400 282.167,168.333 282.084,168.333 281.984 C 168.333 281.884,168.194 281.602,168.024 281.359 C 167.854 281.116,167.524 280.579,167.292 280.167 C 167.060 279.754,166.142 278.221,165.252 276.760 C 164.362 275.299,163.508 273.874,163.354 273.594 C 163.199 273.313,161.632 270.676,159.870 267.734 C 158.108 264.791,156.669 262.316,156.672 262.234 C 156.676 262.151,157.243 261.826,157.934 261.510 C 160.735 260.232,164.020 257.688,165.667 255.520 C 165.896 255.218,166.162 254.884,166.257 254.777 C 167.538 253.350,169.198 249.433,169.943 246.082 C 170.544 243.376,170.289 236.383,169.517 234.417 C 169.445 234.233,169.212 233.558,168.999 232.917 C 167.710 229.035,164.858 225.274,161.226 222.668 L 160.417 222.087 161.484 223.327 M65.351 225.625 C 84.851 245.605,74.886 278.694,47.250 285.728 C 43.326 286.727,35.901 287.123,32.250 286.528 C 25.994 285.509,21.721 283.869,15.917 280.260 L 15.417 279.950 15.917 280.416 C 16.192 280.672,17.167 281.432,18.083 282.104 C 19.000 282.777,19.841 283.403,19.951 283.497 C 20.062 283.590,20.206 283.667,20.272 283.667 C 20.337 283.667,20.509 283.773,20.654 283.903 C 20.798 284.033,21.442 284.416,22.083 284.755 C 22.725 285.093,23.438 285.471,23.667 285.595 C 24.527 286.060,26.682 287.000,26.887 287.000 C 27.004 287.000,27.171 287.061,27.258 287.135 C 27.345 287.210,27.979 287.442,28.667 287.651 C 29.354 287.859,30.104 288.095,30.333 288.174 C 30.795 288.333,32.224 288.667,34.250 289.091 C 35.977 289.453,43.743 289.626,45.833 289.349 C 47.618 289.113,49.717 288.740,50.583 288.504 C 58.665 286.310,64.893 282.497,70.167 276.514 C 71.190 275.353,71.581 274.860,72.167 273.995 C 72.304 273.792,72.497 273.541,72.595 273.438 C 74.151 271.799,77.270 264.748,78.022 261.167 C 78.109 260.754,78.252 260.117,78.340 259.750 C 79.132 256.455,79.132 249.712,78.340 246.417 C 78.252 246.050,78.132 245.487,78.073 245.167 C 77.884 244.129,76.850 240.913,76.304 239.667 C 76.124 239.254,75.863 238.654,75.725 238.333 C 73.644 233.497,69.885 228.700,65.283 225.007 C 63.290 223.409,63.303 223.526,65.351 225.625 M34.583 225.278 C 26.128 226.249,18.210 232.290,14.850 240.335 C 10.426 250.929,13.457 263.499,22.083 270.325 C 23.800 271.683,24.208 271.859,23.235 270.821 C 22.769 270.324,22.094 269.542,21.735 269.083 C 21.377 268.625,21.044 268.212,20.995 268.167 C 19.991 267.219,17.539 261.888,16.931 259.333 C 12.701 241.547,27.312 225.359,45.083 228.144 C 46.274 228.330,46.760 228.450,48.667 229.026 C 49.822 229.376,49.905 229.408,51.365 230.070 C 51.886 230.306,52.392 230.500,52.490 230.500 C 52.587 230.500,52.667 230.575,52.667 230.667 C 52.667 230.758,52.752 230.833,52.857 230.833 C 52.961 230.833,53.430 231.061,53.898 231.339 L 54.750 231.845 53.917 231.062 C 49.496 226.909,41.422 224.494,34.583 225.278 M215.833 235.492 L 215.833 244.667 217.500 244.667 L 219.167 244.667 219.167 236.917 L 219.167 229.167 228.337 229.167 C 237.062 229.167,237.554 229.183,238.451 229.498 C 238.969 229.680,239.436 229.785,239.488 229.732 C 239.638 229.577,238.053 228.214,237.021 227.609 C 234.917 226.376,235.449 226.431,225.125 226.372 L 215.833 226.318 215.833 235.492 M125.500 238.500 L 125.500 250.179 127.125 250.131 L 128.750 250.083 128.793 239.782 L 128.836 229.480 138.376 229.546 C 148.757 229.617,148.749 229.616,150.731 230.604 C 151.481 230.978,151.426 230.768,150.553 229.922 C 149.525 228.926,147.903 227.972,146.233 227.382 L 144.917 226.917 135.208 226.869 L 125.500 226.821 125.500 238.500 M345.667 228.167 L 345.667 229.500 354.417 229.500 L 363.167 229.500 363.167 228.167 L 363.167 226.833 354.417 226.833 L 345.667 226.833 345.667 228.167 M253.667 253.308 C 253.667 253.382,253.861 253.624,254.098 253.846 C 257.862 257.374,259.583 264.559,258.068 270.417 C 256.106 278.002,250.621 282.881,241.833 284.856 L 240.083 285.250 223.208 285.297 L 206.333 285.345 206.333 286.766 L 206.333 288.186 224.708 288.114 C 236.890 288.065,243.392 287.980,244.000 287.861 C 250.198 286.644,254.319 284.535,257.333 281.037 C 257.837 280.452,258.328 279.885,258.424 279.778 C 259.249 278.853,260.942 275.370,261.353 273.750 C 261.783 272.053,261.843 271.590,261.942 269.157 C 262.098 265.331,261.032 260.339,259.958 259.861 C 259.890 259.831,259.833 259.706,259.833 259.584 C 259.833 259.219,257.943 256.784,256.756 255.620 C 255.654 254.540,253.667 253.052,253.667 253.308 M215.778 254.611 C 215.717 254.672,215.667 259.210,215.667 264.694 L 215.667 274.667 217.417 274.667 L 219.167 274.667 219.167 265.994 L 219.167 257.322 230.125 257.373 L 241.083 257.424 241.979 257.802 C 243.186 258.312,243.227 258.159,242.153 257.160 C 241.044 256.129,238.974 255.076,237.417 254.750 C 236.191 254.493,216.025 254.364,215.778 254.611 M125.500 273.247 L 125.500 285.328 120.708 285.372 L 115.917 285.417 115.868 286.792 L 115.820 288.167 122.327 288.167 L 128.833 288.167 128.833 276.083 L 128.833 264.000 135.268 264.000 C 141.035 264.000,141.692 263.973,141.602 263.739 C 141.547 263.596,141.199 262.959,140.827 262.323 L 140.152 261.167 132.826 261.167 L 125.500 261.167 125.500 273.247 "
              stroke="none" fill="#5b5b5c" fill-rule="evenodd"></path>
        <path id="path4"
              d="M185.167 0.867 C 184.662 1.150,183.350 1.906,182.250 2.548 C 181.150 3.189,179.912 3.902,179.500 4.132 C 179.088 4.361,177.662 5.186,176.333 5.965 C 175.004 6.743,173.617 7.543,173.250 7.741 C 172.883 7.939,171.683 8.629,170.583 9.274 C 167.305 11.195,164.298 12.933,163.414 13.420 C 162.957 13.671,161.796 14.343,160.833 14.914 C 159.871 15.485,158.746 16.134,158.333 16.355 C 157.921 16.577,157.396 16.876,157.167 17.021 C 156.938 17.165,155.775 17.849,154.583 18.541 C 153.392 19.233,152.154 19.956,151.833 20.148 C 151.512 20.340,151.063 20.590,150.833 20.704 C 150.604 20.817,150.379 20.954,150.333 21.008 C 150.287 21.061,149.813 21.353,149.278 21.656 L 148.307 22.206 149.112 22.765 C 149.554 23.073,149.992 23.384,150.083 23.458 C 150.175 23.532,150.625 23.811,151.083 24.077 C 151.542 24.344,152.008 24.641,152.119 24.739 C 152.543 25.111,152.770 25.273,153.417 25.666 C 153.783 25.889,154.174 26.149,154.286 26.244 C 154.743 26.634,154.947 26.779,155.583 27.167 C 155.950 27.390,156.325 27.635,156.417 27.712 C 156.508 27.788,157.071 28.162,157.667 28.542 C 158.262 28.922,158.787 29.282,158.833 29.342 C 159.416 30.099,159.386 30.113,169.083 24.512 C 172.933 22.289,179.740 18.361,184.208 15.784 C 188.677 13.207,192.331 11.057,192.329 11.007 C 192.326 10.958,191.616 10.017,190.750 8.917 C 189.007 6.702,187.793 4.495,186.950 2.013 C 186.328 0.182,186.356 0.200,185.167 0.867 M223.408 1.542 C 222.973 2.700,222.531 3.777,222.125 4.667 C 221.606 5.805,219.732 8.648,219.158 9.167 C 219.107 9.212,218.845 9.550,218.575 9.917 C 218.304 10.283,217.984 10.688,217.862 10.817 C 217.676 11.012,217.716 11.095,218.112 11.332 C 219.588 12.217,223.890 14.704,224.709 15.146 C 225.236 15.430,225.951 15.842,226.298 16.061 C 226.644 16.280,227.870 16.987,229.021 17.632 C 230.880 18.674,232.951 19.879,233.667 20.336 C 233.804 20.423,234.179 20.634,234.500 20.805 C 234.821 20.975,236.771 22.092,238.833 23.288 C 240.896 24.483,243.146 25.783,243.833 26.176 C 245.314 27.024,249.041 29.182,252.750 31.339 C 254.217 32.193,255.746 33.069,256.148 33.286 C 256.550 33.504,257.882 34.278,259.106 35.008 C 260.331 35.737,261.371 36.333,261.417 36.333 C 261.463 36.333,262.445 36.896,263.600 37.583 C 266.153 39.104,265.825 39.147,266.478 37.208 C 267.509 34.147,268.765 31.997,271.408 28.771 L 272.009 28.038 268.546 26.079 C 266.642 25.001,264.258 23.630,263.250 23.032 C 261.429 21.952,254.911 18.184,237.167 7.954 C 232.079 5.021,227.429 2.308,226.833 1.925 C 223.860 0.014,223.977 0.027,223.408 1.542 M198.913 14.809 C 198.869 14.853,198.833 22.044,198.833 30.790 C 198.833 47.009,198.828 47.167,198.272 47.167 C 198.225 47.167,197.525 47.567,196.718 48.056 C 195.911 48.545,194.725 49.231,194.083 49.579 C 193.442 49.928,192.871 50.284,192.815 50.371 C 192.759 50.457,192.671 50.503,192.620 50.473 C 192.569 50.442,192.340 50.579,192.111 50.778 C 191.882 50.977,191.651 51.096,191.598 51.042 C 191.544 50.988,191.500 51.037,191.500 51.151 C 191.500 51.422,191.720 51.618,192.918 52.414 C 193.467 52.780,193.954 53.121,194.000 53.173 C 194.046 53.225,194.383 53.448,194.750 53.669 C 195.117 53.890,195.508 54.149,195.619 54.244 C 196.076 54.634,196.280 54.779,196.917 55.167 C 197.283 55.390,197.658 55.633,197.750 55.706 C 197.842 55.780,198.404 56.157,199.000 56.544 C 199.596 56.931,200.121 57.290,200.167 57.341 C 200.213 57.392,200.550 57.615,200.917 57.836 C 201.283 58.057,201.674 58.315,201.786 58.410 C 202.245 58.802,202.448 58.946,203.083 59.330 C 203.450 59.551,203.787 59.778,203.833 59.833 C 203.879 59.888,204.404 60.244,205.000 60.625 C 205.596 61.005,206.160 61.376,206.253 61.450 C 206.346 61.523,206.871 61.882,207.420 62.248 C 207.968 62.613,208.454 62.955,208.500 63.007 C 208.546 63.058,208.883 63.282,209.250 63.503 C 209.617 63.723,210.001 63.982,210.105 64.077 C 210.317 64.273,210.270 64.241,212.750 65.870 C 213.758 66.533,214.621 67.118,214.667 67.171 C 214.713 67.224,215.050 67.448,215.417 67.669 C 215.783 67.890,216.174 68.149,216.286 68.244 C 216.743 68.634,216.947 68.779,217.583 69.166 C 217.950 69.389,218.349 69.667,218.470 69.785 C 218.591 69.903,218.755 70.000,218.833 70.000 C 218.912 70.000,219.075 70.097,219.196 70.215 C 219.318 70.333,219.717 70.610,220.083 70.831 C 220.450 71.052,220.787 71.274,220.833 71.325 C 220.879 71.375,221.367 71.716,221.917 72.081 C 222.467 72.447,222.954 72.788,223.000 72.840 C 223.046 72.892,223.383 73.115,223.750 73.336 C 224.117 73.557,224.511 73.829,224.626 73.941 C 224.741 74.053,224.985 74.192,225.168 74.250 C 225.350 74.308,225.500 74.409,225.500 74.473 C 225.500 74.996,226.692 75.213,227.462 74.831 C 231.312 72.920,266.549 49.937,266.805 49.169 C 266.866 48.985,266.459 47.659,266.047 46.701 L 265.810 46.151 265.113 46.546 C 264.730 46.763,263.179 47.654,261.667 48.527 C 260.154 49.400,257.379 50.999,255.500 52.082 C 253.621 53.165,251.804 54.227,251.462 54.442 C 251.120 54.657,250.803 54.833,250.758 54.833 C 250.713 54.833,249.278 55.658,247.568 56.667 C 245.859 57.675,244.438 58.500,244.410 58.500 C 244.383 58.500,243.598 58.950,242.667 59.500 C 241.735 60.050,240.930 60.500,240.877 60.500 C 240.825 60.500,240.549 60.674,240.266 60.886 C 239.982 61.098,239.281 61.554,238.708 61.898 L 237.666 62.525 235.625 61.349 C 234.502 60.702,228.596 57.295,222.500 53.778 L 211.417 47.383 211.374 31.025 C 211.351 22.028,211.313 14.668,211.291 14.670 C 211.268 14.672,210.650 14.786,209.917 14.924 C 206.257 15.612,204.563 15.633,200.871 15.034 C 199.838 14.867,198.957 14.766,198.913 14.809 M284.000 93.239 C 284.000 114.144,284.003 114.312,284.332 114.416 C 284.515 114.474,284.759 114.611,284.875 114.719 C 284.991 114.828,286.097 115.589,287.334 116.411 C 288.571 117.232,289.621 117.949,289.667 118.003 C 289.712 118.057,290.050 118.281,290.417 118.500 C 290.783 118.719,291.121 118.941,291.167 118.993 C 291.212 119.044,292.262 119.759,293.500 120.581 C 294.737 121.403,295.862 122.184,296.000 122.318 C 296.222 122.533,296.265 119.762,296.383 97.427 C 296.457 83.604,296.483 72.261,296.443 72.221 C 296.403 72.180,295.543 72.303,294.533 72.494 C 291.056 73.150,289.207 73.116,285.117 72.322 C 284.677 72.237,284.246 72.167,284.158 72.167 C 284.059 72.167,284.000 80.029,284.000 93.239 M33.717 214.173 C 32.153 214.302,29.418 214.752,28.667 215.005 C 28.438 215.083,27.988 215.194,27.667 215.252 C 27.002 215.374,24.346 216.243,23.558 216.597 C 23.269 216.727,22.984 216.833,22.924 216.833 C 22.740 216.833,20.125 218.054,19.083 218.626 C 18.131 219.150,16.558 220.090,16.380 220.243 C 16.268 220.338,15.792 220.679,15.323 221.000 C 7.887 226.077,2.386 234.485,0.600 243.500 C 0.163 245.711,0.176 246.255,0.667 246.222 C 0.896 246.207,3.221 246.148,5.833 246.091 C 13.352 245.928,13.333 245.932,13.333 244.652 C 13.333 244.016,14.535 240.738,15.414 238.974 C 23.746 222.262,46.591 220.157,57.636 235.083 C 59.567 237.693,61.991 242.959,62.003 244.570 C 62.004 244.790,62.051 244.845,62.131 244.719 C 62.222 244.576,63.982 244.483,68.448 244.386 C 71.853 244.311,74.694 244.195,74.762 244.127 C 74.885 244.004,74.505 242.126,74.045 240.583 C 71.654 232.576,67.014 226.125,59.750 220.708 C 58.154 219.517,53.972 217.328,51.917 216.606 C 51.183 216.349,50.433 216.075,50.250 215.997 C 49.374 215.628,46.947 215.019,44.333 214.513 C 41.915 214.044,37.146 213.892,33.717 214.173 M112.667 229.409 L 112.667 243.167 114.458 243.170 C 115.444 243.171,118.293 243.083,120.790 242.974 L 125.330 242.775 125.373 234.763 L 125.417 226.750 134.301 226.707 C 142.585 226.667,143.295 226.686,144.801 226.992 C 147.403 227.521,150.597 229.341,151.370 230.735 C 151.487 230.947,151.801 231.447,152.067 231.847 C 153.927 234.642,154.746 239.817,153.651 241.863 C 153.470 242.201,153.489 242.203,155.153 242.084 C 156.079 242.018,159.005 241.916,161.655 241.857 C 164.305 241.798,166.529 241.693,166.598 241.624 C 166.826 241.396,166.879 237.092,166.677 235.319 C 166.082 230.111,164.009 225.885,160.037 221.782 C 158.190 219.874,153.859 217.487,150.833 216.711 C 146.923 215.706,148.734 215.792,129.875 215.719 L 112.667 215.652 112.667 229.409 M202.834 226.285 C 202.835 232.132,202.884 237.772,202.944 238.818 L 203.054 240.719 208.069 240.609 C 210.827 240.548,213.665 240.450,214.375 240.392 L 215.667 240.285 215.667 233.309 L 215.667 226.333 224.658 226.333 C 234.357 226.333,234.697 226.359,236.469 227.219 C 237.474 227.707,239.667 229.517,239.667 229.859 C 239.667 229.949,239.845 230.261,240.062 230.553 C 241.551 232.551,242.064 238.489,240.814 239.262 C 240.149 239.673,240.811 239.746,244.291 239.645 C 246.285 239.587,249.243 239.530,250.864 239.520 C 253.517 239.502,253.819 239.471,253.895 239.208 C 256.589 229.889,251.394 219.783,242.500 217.041 C 238.069 215.675,239.631 215.769,220.208 215.708 L 202.833 215.654 202.834 226.285 M294.833 225.892 C 294.833 231.516,294.882 236.579,294.940 237.142 L 295.047 238.167 297.247 238.167 C 298.456 238.167,301.254 238.117,303.464 238.057 L 307.483 237.947 307.573 237.099 C 307.622 236.632,307.682 231.619,307.706 225.958 L 307.750 215.667 301.292 215.667 L 294.833 215.667 294.833 225.892 M342.333 221.216 L 342.333 226.765 352.750 226.695 L 363.167 226.625 363.168 227.854 C 363.170 231.819,363.263 236.319,363.343 236.399 C 363.395 236.450,364.782 236.421,366.427 236.333 C 368.071 236.246,370.779 236.173,372.445 236.171 C 374.110 236.168,375.591 236.121,375.736 236.066 C 375.968 235.977,376.000 235.401,376.000 231.316 L 376.000 226.667 386.333 226.667 L 396.667 226.667 396.667 223.193 C 396.667 221.282,396.716 218.807,396.776 217.693 L 396.885 215.667 369.609 215.667 L 342.333 215.667 342.333 221.216 "
              stroke="none" fill="#2b92d0" fill-rule="evenodd"></path>
    </g>
</svg>