<svg xmlns="http://www.w3.org/2000/svg" xmlns:xlink="http://www.w3.org/1999/xlink" aria-hidden="true" focusable="false"
     width="1em" height="1em"
     style="-ms-transform: rotate(360deg); -webkit-transform: rotate(360deg); transform: rotate(360deg);"
     preserveAspectRatio="xMidYMid meet" viewBox="0 0 24 24">
    <g fill="none">
        <path d="M6.25 3A3.25 3.25 0 0 0 3 6.25v11.5A3.25 3.25 0 0 0 6.25 21h11.5A3.25 3.25 0 0 0 21 17.75V6.25A3.25 3.25 0 0 0 17.75 3H6.25zM4.5 6.25c0-.966.784-1.75 1.75-1.75H11v3H4.5V6.25zm8 10.25h7v1.25a1.75 1.75 0 0 1-1.75 1.75H12.5v-3zm7-9h-7v-3h5.25c.966 0 1.75.784 1.75 1.75V7.5zm-8.5 9v3H6.25a1.75 1.75 0 0 1-1.75-1.75V16.5H11zM4.5 9h15v6h-15V9z"
              fill="#626262"/>
    </g>
</svg>