<svg xmlns="http://www.w3.org/2000/svg" xmlns:xlink="http://www.w3.org/1999/xlink" aria-hidden="true" focusable="false"
     width="1em" height="1em"
     style="-ms-transform: rotate(360deg); -webkit-transform: rotate(360deg); transform: rotate(360deg);"
     preserveAspectRatio="xMidYMid meet" viewBox="0 0 24 24">
    <path d="M4 18h16c1.1 0 1.99-.9 1.99-2L22 5c0-1.1-.9-2-2-2H4c-1.1 0-2 .9-2 2v11c0 1.1.9 2 2 2zM4 5h16v11H4V5zM1 20c0 .55.45 1 1 1h20c.55 0 1-.45 1-1s-.45-1-1-1H2c-.55 0-1 .45-1 1z"
          fill="#626262"/>
</svg>