<svg id="Capa_1" enable-background="new 0 0 511.741 511.741" height="512" viewBox="0 0 511.741 511.741" width="512" xmlns="http://www.w3.org/2000/svg"><g><g><path d="m240.708 285.414h30.326c4.142 0 7.5-3.358 7.5-7.5s-3.358-7.5-7.5-7.5h-30.326c-4.142 0-7.5 3.358-7.5 7.5s3.357 7.5 7.5 7.5z"/></g><g><path d="m221.618 94.044c-3.149-2.689-7.884-2.317-10.574.832l-77.888 91.192c-2.69 3.15-2.317 7.884.832 10.574 1.413 1.207 3.145 1.797 4.868 1.797 2.118 0 4.223-.893 5.707-2.629l77.888-91.192c2.689-3.15 2.316-7.884-.833-10.574z"/><path d="m133.875 148.519c1.429 1.27 3.208 1.895 4.98 1.895 2.068 0 4.127-.85 5.608-2.517l21.053-23.685c2.752-3.096 2.473-7.836-.623-10.588-3.097-2.752-7.837-2.473-10.588.623l-21.053 23.685c-2.751 3.095-2.472 7.835.623 10.587z"/><path d="m441.607 418.738c-2.042-6.44-7.952-10.767-14.708-10.767h-253.736c-4.142 0-7.5 3.358-7.5 7.5s3.358 7.5 7.5 7.5h253.737c.188 0 .353.121.409.299l23.109 72.913c.023.072.065.207-.063.383-.128.175-.27.175-.346.175h-388.277c-.076 0-.217 0-.346-.175-.128-.176-.086-.311-.063-.383l23.109-72.913c.057-.179.221-.299.409-.299h54.467c4.142 0 7.5-3.358 7.5-7.5s-3.358-7.5-7.5-7.5h-54.466c-6.756 0-12.667 4.327-14.708 10.767l-23.109 72.913c-1.503 4.741-.68 9.762 2.258 13.775s7.476 6.315 12.449 6.315h388.276c4.974 0 9.511-2.302 12.449-6.315s3.761-9.034 2.258-13.775z"/><path d="m453.843 0h-395.945c-16.538 0-29.993 13.455-29.993 29.993v254.015c0 16.538 13.455 29.993 29.993 29.993h147.267c-.515 15.068-1.995 40.069-5.224 54.087h-32.282c-4.142 0-7.5 3.358-7.5 7.5s3.358 7.5 7.5 7.5h176.425c4.142 0 7.5-3.358 7.5-7.5s-3.358-7.5-7.5-7.5h-32.282c-3.229-14.018-4.709-39.019-5.224-54.087h147.267c16.538 0 29.993-13.455 29.993-29.993v-254.015c-.002-16.538-13.457-29.993-29.995-29.993zm-238.588 368.088c3.309-16.954 4.506-41.798 4.914-54.087h71.402c.408 12.289 1.605 37.133 4.914 54.087zm253.581-84.08c0 8.267-6.726 14.993-14.993 14.993h-395.945c-8.267 0-14.993-6.726-14.993-14.993v-27.181h425.932v27.181zm0-42.181h-19.702v-110.706c0-4.142-3.358-7.5-7.5-7.5s-7.5 3.358-7.5 7.5v110.706h-356.527v-190.985c0-1.093.889-1.982 1.982-1.982h352.563c1.093 0 1.982.889 1.982 1.982v45.962c0 4.142 3.358 7.5 7.5 7.5s7.5-3.358 7.5-7.5v-45.962c0-9.364-7.618-16.982-16.982-16.982h-352.563c-9.364 0-16.982 7.618-16.982 16.982v190.985h-19.702v-211.834c0-8.267 6.726-14.993 14.993-14.993h395.945c8.267 0 14.993 6.726 14.993 14.993z"/><path d="m139.309 438.935h-10.177c-4.142 0-7.5 3.358-7.5 7.5s3.358 7.5 7.5 7.5h10.177c4.142 0 7.5-3.358 7.5-7.5s-3.358-7.5-7.5-7.5z"/><path d="m169.84 453.935h10.177c4.142 0 7.5-3.358 7.5-7.5s-3.358-7.5-7.5-7.5h-10.177c-4.142 0-7.5 3.358-7.5 7.5s3.358 7.5 7.5 7.5z"/><path d="m210.548 453.935h10.177c4.142 0 7.5-3.358 7.5-7.5s-3.358-7.5-7.5-7.5h-10.177c-4.142 0-7.5 3.358-7.5 7.5s3.358 7.5 7.5 7.5z"/><path d="m251.257 453.935h10.177c4.142 0 7.5-3.358 7.5-7.5s-3.358-7.5-7.5-7.5h-10.177c-4.142 0-7.5 3.358-7.5 7.5s3.358 7.5 7.5 7.5z"/><path d="m291.965 453.935h10.177c4.142 0 7.5-3.358 7.5-7.5s-3.358-7.5-7.5-7.5h-10.177c-4.142 0-7.5 3.358-7.5 7.5s3.358 7.5 7.5 7.5z"/><path d="m332.674 453.935h10.177c4.142 0 7.5-3.358 7.5-7.5s-3.358-7.5-7.5-7.5h-10.177c-4.142 0-7.5 3.358-7.5 7.5s3.358 7.5 7.5 7.5z"/><path d="m372.433 453.935h10.177c4.142 0 7.5-3.358 7.5-7.5s-3.358-7.5-7.5-7.5h-10.177c-4.142 0-7.5 3.358-7.5 7.5s3.358 7.5 7.5 7.5z"/><path d="m139.309 465.778h-10.177c-4.142 0-7.5 3.358-7.5 7.5s3.358 7.5 7.5 7.5h10.177c4.142 0 7.5-3.358 7.5-7.5s-3.358-7.5-7.5-7.5z"/><path d="m169.84 480.778h10.177c4.142 0 7.5-3.358 7.5-7.5s-3.358-7.5-7.5-7.5h-10.177c-4.142 0-7.5 3.358-7.5 7.5s3.358 7.5 7.5 7.5z"/><path d="m210.548 480.778h10.177c4.142 0 7.5-3.358 7.5-7.5s-3.358-7.5-7.5-7.5h-10.177c-4.142 0-7.5 3.358-7.5 7.5s3.358 7.5 7.5 7.5z"/><path d="m251.257 480.778h10.177c4.142 0 7.5-3.358 7.5-7.5s-3.358-7.5-7.5-7.5h-10.177c-4.142 0-7.5 3.358-7.5 7.5s3.358 7.5 7.5 7.5z"/><path d="m291.965 480.778h10.177c4.142 0 7.5-3.358 7.5-7.5s-3.358-7.5-7.5-7.5h-10.177c-4.142 0-7.5 3.358-7.5 7.5s3.358 7.5 7.5 7.5z"/><path d="m332.674 480.778h10.177c4.142 0 7.5-3.358 7.5-7.5s-3.358-7.5-7.5-7.5h-10.177c-4.142 0-7.5 3.358-7.5 7.5s3.358 7.5 7.5 7.5z"/><path d="m372.433 480.778h10.177c4.142 0 7.5-3.358 7.5-7.5s-3.358-7.5-7.5-7.5h-10.177c-4.142 0-7.5 3.358-7.5 7.5s3.358 7.5 7.5 7.5z"/></g></g></svg>